<svg width="507" height="175" viewBox="0 0 507 175" fill="none" xmlns="http://www.w3.org/2000/svg">
<g clip-path="url(#clip0_155_429)">
<path d="M276.496 61.1011C269.513 61.1011 263.121 64.4917 259.638 69.8887L259.375 62.253H253.229L253.291 63.0084C253.592 66.816 253.708 70.1759 253.708 74.9918V113.898H260.134V82.108C260.134 80.5494 260.462 78.8917 260.728 77.8116C262.718 71.3243 268.641 66.7955 275.132 66.7955C286.637 66.7955 288.352 77.2442 288.352 83.4718V113.899H294.778V83.0513C294.778 62.1607 279.548 61.1011 276.496 61.1011Z" fill="#E5E5E5"/>
<path d="M338.316 101.266V81.585C338.316 68.1831 332.064 61.1011 320.242 61.1011C314.947 61.1011 309.284 62.7486 305.097 65.5103L304.608 65.8316L306.751 70.8355L307.459 70.3296C310.743 67.9815 315.098 66.6895 319.726 66.6895C319.784 66.6895 319.845 66.6895 319.907 66.6895C323.547 66.6895 326.398 67.6807 328.373 69.6392C330.738 71.9873 331.89 75.6206 331.89 80.7476V81.4038C331.822 81.4038 331.757 81.4038 331.689 81.4038C319.579 81.4038 310.9 83.916 305.893 88.8755C302.793 91.9414 301.221 95.8652 301.221 100.531C301.221 107.524 306.061 115.05 316.684 115.05C324.022 115.05 329.47 111.417 332.475 107.626L333.11 113.898H339.174L339.04 113.085C338.401 109.147 338.316 104.899 338.316 101.266ZM317.207 109.462C312.688 109.462 307.858 106.895 307.858 99.6934C307.858 96.607 308.877 94.0538 310.887 92.1021C314.4 88.6875 320.905 86.9615 330.243 86.9615C330.783 86.9615 331.333 86.9649 331.89 86.9786V97.0787C331.89 97.8067 331.808 98.88 331.405 99.8883C329.829 104.516 325.273 109.462 317.207 109.462Z" fill="#E5E5E5"/>
<path d="M384.613 69.3281C382.381 65.9648 377.521 61.1011 368.07 61.1011C356.487 61.1011 344.76 70.5108 344.76 88.4961C344.76 102.978 354.33 113.898 367.021 113.898C374.288 113.898 380.477 110.86 384.012 105.664V110.579C384.012 123.592 378.119 130.188 366.498 130.188C361.002 130.188 356.094 128.818 351.91 126.114L351.226 125.67L348.882 130.899L349.326 131.234C353.024 134.037 359.324 135.777 365.766 135.777C369.099 135.777 377.483 135.175 383.311 129.614C388.24 124.932 390.437 117.61 390.437 105.87V75.9317C390.437 70.3878 390.56 66.5255 390.854 63.0118L390.919 62.253H384.876L384.613 69.3281ZM368.279 108.31C355.663 108.31 351.185 97.352 351.185 87.9697C351.185 75.2412 358.138 66.6894 368.487 66.6894C375.48 66.6894 381.062 70.7773 383.424 77.6337C383.913 79.0009 384.012 80.498 384.012 82.3197V92.3685C384.012 94.0125 383.728 95.8309 383.215 97.4647C380.792 104.154 375.07 108.31 368.279 108.31Z" fill="#E5E5E5"/>
<path d="M452.914 91.2067C451.157 96.5729 449.814 100.876 448.83 104.807C447.637 100.551 446.215 96.0397 444.509 91.0939L434.72 62.2531H429.009L418.793 91.3024C417.224 95.8551 415.621 100.603 414.366 104.892C413.433 101.218 412.336 97.3898 411.102 93.0694L402.123 62.7554L401.976 62.253H395.376L411.146 113.403L411.3 113.899H416.704L426.811 85.5943C428.947 79.7222 430.492 74.961 431.695 70.5005C432.936 75.2344 434.488 79.9854 436.381 85.4746L446.064 113.898H451.366L468.579 62.2529H461.961L452.914 91.2067Z" fill="#E5E5E5"/>
<path d="M506.494 113.085C505.854 109.147 505.769 104.899 505.769 101.266V81.585C505.769 68.1831 499.518 61.1011 487.695 61.1011C482.4 61.1011 476.737 62.7486 472.55 65.5103L472.061 65.8316L474.204 70.8355L474.912 70.3296C478.196 67.9815 482.551 66.6895 487.179 66.6895C487.237 66.6895 487.298 66.6895 487.36 66.6895C491 66.6895 493.851 67.6807 495.826 69.6392C498.191 71.9873 499.343 75.6206 499.343 80.7476V81.4038C499.275 81.4038 499.21 81.4038 499.142 81.4038C487.032 81.4038 478.354 83.916 473.346 88.8755C470.246 91.9414 468.674 95.8652 468.674 100.531C468.674 107.524 473.514 115.05 484.137 115.05C491.475 115.05 496.923 111.417 499.928 107.626L500.563 113.898H506.627L506.494 113.085ZM484.66 109.462C480.141 109.462 475.312 106.895 475.312 99.6934C475.312 96.607 476.33 94.0538 478.34 92.1021C481.854 88.6875 488.358 86.9615 497.696 86.9615C498.236 86.9615 498.786 86.9649 499.343 86.9786V97.0787C499.343 97.8067 499.261 98.88 498.858 99.8883C497.282 104.516 492.726 109.462 484.66 109.462Z" fill="#E5E5E5"/>
<path d="M0 145.832L50.5153 175V116.665L151.557 175V116.665L0 29.168V145.832Z" fill="#026BB0"/>
<path d="M50.5176 175L101.033 145.833L50.5176 116.665V175Z" fill="#F5AA00"/>
<path d="M151.557 0L101.036 29.1675L151.557 58.335V0Z" fill="#F5AA00"/>
<path d="M151.558 0V58.335L50.5164 0L0.000976562 29.1675L151.558 116.664V174.999L202.073 145.832V29.1675L151.558 0Z" fill="#E51D74"/>
<path d="M50.5173 0L0.00195312 29.1675L50.5173 58.335L101.033 29.1675L50.5173 0Z" fill="#78B517"/>
</g>
<defs>
<clipPath id="clip0_155_429">
<rect width="506.627" height="175" fill="white"/>
</clipPath>
</defs>
</svg>
